<svg xmlns="http://www.w3.org/2000/svg" viewBox="0 0 170.91 173.24"><defs><style>.cls-1{fill:#fff;}.cls-2{fill:#c1272d;}</style></defs><title>flag-marked</title><g id="Layer_2" data-name="Layer 2"><g id="Layer_1-2" data-name="Layer 1"><g id="flag"><path class="cls-1" d="M60,160.07l-7.64-24.76L15.75,16.67a4,4,0,0,0-3.81-2.84,4.37,4.37,0,0,0-1.18.17A4,4,0,0,0,8.4,15.94a4,4,0,0,0-.27,3L44,135.31l8.36,27.12A4,4,0,0,0,60,160.07ZM170.34,90.22s-.21-.76-.21-.79L150.94,27.06a11.93,11.93,0,0,0-15.73-7.21l-.28.11C123.85,24.7,107.87,21.52,91,11.23,71-1,48.7-3.43,32.83,4.85a1.38,1.38,0,0,0-.38.21A74.43,74.43,0,0,0,22.4,12a12.08,12.08,0,0,0-14-5.64A11.87,11.87,0,0,0,.54,21.31l35.1,114,9.07,29.47a11.9,11.9,0,0,0,11.44,8.46,13.79,13.79,0,0,0,3.81-.63,11.93,11.93,0,0,0,7.62-14.86l-6.91-22.44-9.41-30.57A40.8,40.8,0,0,1,62.38,96.6c14.28-7.38,32.67-5.23,50.48,6a60,60,0,0,0,31.32,9.21,46.14,46.14,0,0,0,17.43-3.25,15.44,15.44,0,0,0,9.29-14.18A13.8,13.8,0,0,0,170.34,90.22Zm-12.09,11c-11.92,4.89-28.06,2.78-41.16-5.47-20.23-12.72-41.51-15-58.35-6.27a54.73,54.73,0,0,0-10.11,6.65L25.21,20.1a67.69,67.69,0,0,1,10.94-8,1.32,1.32,0,0,0,.18-.07c13.41-7.13,32.81-4.81,50.58,6,18.85,11.54,37.35,14.94,50.76,9.39a3.16,3.16,0,0,0,.59-.24,3.84,3.84,0,0,1,5.06,2.22l19.36,63a7,7,0,0,1,.28,1.94A7.54,7.54,0,0,1,158.25,101.27Z"/></g><path class="cls-2" d="M163,94.31a7.54,7.54,0,0,1-4.71,7c-11.92,4.89-28.06,2.78-41.16-5.47-20.23-12.72-41.51-15-58.35-6.27a54.73,54.73,0,0,0-10.11,6.65L25.21,20.1a67.69,67.69,0,0,1,10.94-8,1.32,1.32,0,0,0,.18-.07c13.41-7.13,32.81-4.81,50.58,6,18.85,11.54,37.35,14.94,50.76,9.39a3.16,3.16,0,0,0,.59-.24,3.84,3.84,0,0,1,5.06,2.22l19.36,63A7,7,0,0,1,163,94.31Z"/></g></g></svg>