<svg xmlns="http://www.w3.org/2000/svg" viewBox="0 0 170.9 173.23"><defs><style>.cls-1{fill:#fff;}</style></defs><title>flag</title><g id="Layer_2" data-name="Layer 2"><g id="Layer_1-2" data-name="Layer 1"><g id="flag"><path class="cls-1" d="M170.35,90.22s-.21-.76-.21-.8L150.94,27.06a11.93,11.93,0,0,0-15.73-7.21l-.28.1c-11.09,4.75-27.06,1.56-43.9-8.73C71-1,48.7-3.43,32.83,4.85a1.34,1.34,0,0,0-.38.21,74,74,0,0,0-10,7,12.1,12.1,0,0,0-14-5.65A11.88,11.88,0,0,0,.54,21.3L44.72,164.78a11.89,11.89,0,0,0,11.43,8.45,13.68,13.68,0,0,0,3.81-.62,11.93,11.93,0,0,0,7.62-14.86l-16.32-53a40.92,40.92,0,0,1,11.12-8.14c14.27-7.38,32.67-5.23,50.48,6a59.87,59.87,0,0,0,31.32,9.22,46.13,46.13,0,0,0,17.43-3.26,15.43,15.43,0,0,0,9.29-14.17A13.62,13.62,0,0,0,170.35,90.22ZM60,160.06a4,4,0,0,1-7.66,2.36L8.13,19a4,4,0,0,1,.28-3A4,4,0,0,1,10.76,14a4.61,4.61,0,0,1,1.18-.17,3.94,3.94,0,0,1,3.81,2.84Zm98.26-58.8c-11.92,4.89-28.06,2.77-41.16-5.47-20.23-12.72-41.51-15-58.35-6.27a54.77,54.77,0,0,0-10.12,6.65L25.21,20.09a68.14,68.14,0,0,1,10.95-8l.17-.07C49.74,4.88,69.14,7.2,86.92,18c18.85,11.54,37.35,14.93,50.76,9.39a3,3,0,0,0,.59-.24,3.84,3.84,0,0,1,5.06,2.22l19.37,63a7.29,7.29,0,0,1,.28,1.94A7.55,7.55,0,0,1,158.25,101.27Z"/></g></g></g></svg>