<svg xmlns="http://www.w3.org/2000/svg" viewBox="0 0 184 184"><defs><style>.cls-1{fill:#fff;stroke:#fff;stroke-miterlimit:10;stroke-width:3px;}</style></defs><title>reload</title><g id="Layer_2" data-name="Layer 2"><g id="Layer_1-2" data-name="Layer 1"><g id="refresh"><g id="_759-refresh-2-selected_2x.png" data-name="759-refresh-2-selected@2x.png"><path class="cls-1" d="M92,8a84,84,0,0,1,74.5,45.25h-39a3.22,3.22,0,1,0,0,6.44H172.8A3.23,3.23,0,0,0,176,56.45V11.2a3.22,3.22,0,1,0-6.44,0V45.66A90.4,90.4,0,0,0,1.5,92a3.22,3.22,0,0,0,6.44,0A84.07,84.07,0,0,1,92,8Zm87.28,80.8A3.23,3.23,0,0,0,176.06,92,84,84,0,0,1,17.54,130.77h39a3.22,3.22,0,0,0,0-6.44H11.24A3.23,3.23,0,0,0,8,127.55V172.8a3.22,3.22,0,0,0,6.44,0V138.34A90.37,90.37,0,0,0,182.5,92h0A3.23,3.23,0,0,0,179.28,88.78Z"/></g></g></g></g></svg>