<svg xmlns="http://www.w3.org/2000/svg" viewBox="0 0 179.69 179.46"><defs><style>.cls-1{fill:#fff;}</style></defs><title>settings</title><g id="Layer_2" data-name="Layer 2"><g id="Layer_1-2" data-name="Layer 1"><g id="gear"><path class="cls-1" d="M179.15,81.44a4.55,4.55,0,0,0-.22-1A11,11,0,0,0,169,71.68h-3.34a3.09,3.09,0,0,0-.57,0,7,7,0,0,1-6.28-3.88,11.29,11.29,0,0,1-.75-2.41,62.81,62.81,0,0,0-2.84-6.79,3.59,3.59,0,0,0-.29-.5,5.92,5.92,0,0,1-.79-1.58,7.24,7.24,0,0,1-.39-2.33,7,7,0,0,1,2-5l1.8-1.83a2.2,2.2,0,0,0,.61-.54A10.83,10.83,0,0,0,159.26,33a4.57,4.57,0,0,0-.47-.68c-1.76-2.08-3.59-4.09-5.49-6s-4-3.84-6.18-5.64a2.55,2.55,0,0,0-.5-.36c-3.7-2.73-8.69-3.09-13.25.39l-2.48,2.44a3,3,0,0,0-.65.54,7,7,0,0,1-7.61,1.54c-.32-.14-.61-.29-1.26-.65A67.8,67.8,0,0,0,113,21.2L112.3,21a.51.51,0,0,0-.22-.07,6.75,6.75,0,0,1-2.26-1.51,7,7,0,0,1-2-4.09,9.1,9.1,0,0,1,0-2.19V11.26A10.89,10.89,0,0,0,98.62.52L97.29.41A78.43,78.43,0,0,0,81.89.34L80.71.45a10.87,10.87,0,0,0-9,10.73v3.2c0,2.91-1.83,5.56-5.24,6.79a72.43,72.43,0,0,0-8.76,3.63,1.46,1.46,0,0,0-.32.18l-.29.11a7.16,7.16,0,0,1-7.86-1.4,2.32,2.32,0,0,0-.32-.29l-2-1.94a10.81,10.81,0,0,0-14.15-1.08l-1,.86Q29,23.66,26.32,26.3t-5.06,5.49s-.07.11-.11.14L20.25,33a10.89,10.89,0,0,0,1.22,13.93l2.26,2.26c2,2,2.62,5.21,1.11,8.47a71.45,71.45,0,0,0-3.63,8.76,6.19,6.19,0,0,0-.25.75,7,7,0,0,1-1.58,2.44A8.69,8.69,0,0,1,14,71.71H11.24A11,11,0,0,0,.47,80.94L.32,82.31c-.22,2.41-.32,5-.32,7.58s.11,4.92.32,7.36l.14,1.58a10.87,10.87,0,0,0,10.73,9h3.2a7.11,7.11,0,0,1,6.68,4.85c.14.54.07.72.32,1a72,72,0,0,0,3.41,8.11,3.61,3.61,0,0,0,.61.9c-.25-.29-.47-.61-.32-.29a6.75,6.75,0,0,1,.65,2.91,7,7,0,0,1-2,5,2.32,2.32,0,0,0-.29.32l-1.47,1.51c-.14.11-.47.43-.61.57a11,11,0,0,0-1,13.93l1,1.15c1.58,1.87,3.27,3.7,5,5.46s3.55,3.41,5.46,5l1.4,1.15c3.7,2.51,8.47,2.76,12.92-.61l2.48-2.48a7.89,7.89,0,0,0,.65-.5c2-2,4.6-2.94,8.22-1.22.07,0,.11.07.18.07a72.91,72.91,0,0,0,9.48,3.88,7.53,7.53,0,0,1,2.55,1.62,7,7,0,0,1,2,5,2,2,0,0,0,0,.47v2.66a10.85,10.85,0,0,0,9.08,10.73,4.24,4.24,0,0,0,.72.14c2.69.25,5.46.39,8.26.39s5.53-.14,8.26-.39a2.55,2.55,0,0,0,.72-.14,10.85,10.85,0,0,0,9.12-10.73V165a7,7,0,0,1,4.06-6.35,11,11,0,0,1,2-.65,60.6,60.6,0,0,0,7.68-3.27,6.53,6.53,0,0,1,1.33-.65,7.13,7.13,0,0,1,7.11,1.33s.72.75.75.75l1.83,1.83a2.32,2.32,0,0,0,.32.29,11.13,11.13,0,0,0,13.79.83l.32-.22.61-.54c2-1.65,3.84-3.37,5.64-5.17s3.55-3.7,5.21-5.64c0,0,.75-.93.79-.93a10.88,10.88,0,0,0-.75-13.68l-.61-.65-2-2a7,7,0,0,1-1.47-7.72c.11-.25.22-.47.47-.93a76.46,76.46,0,0,0,3.52-8.47,9.59,9.59,0,0,1,.32-.93,6.45,6.45,0,0,1,1.54-2.37,7,7,0,0,1,5-2h3.09a5.4,5.4,0,0,0,.72-.07,10.86,10.86,0,0,0,10.05-9.19,4.23,4.23,0,0,0,.22-1c.22-2.58.32-5.17.32-7.79C179.55,86.94,179.4,84.17,179.15,81.44Zm-7.32,14.61a3.11,3.11,0,0,0-.18,1,3.4,3.4,0,0,1-3.41,3.27,3.09,3.09,0,0,0-.57,0h-2.51a14.36,14.36,0,0,0-10.23,4.24,13.57,13.57,0,0,0-3.2,4.85c-.22.5-.36,1-.47,1.33a62.29,62.29,0,0,1-3,7.32c-.29.47-.5,1-.75,1.47a14.45,14.45,0,0,0,3.05,16l2.37,2.37c1.08,1.18,1.18,3-.22,4.81s-3.12,3.55-4.77,5.21-3.37,3.27-5.17,4.77l-.61.5a3.52,3.52,0,0,1-4.31-.43,1.56,1.56,0,0,0-.25-.22l-1.4-1.4a10.37,10.37,0,0,0-1.26-1.26,14.61,14.61,0,0,0-14.61-2.73,10.3,10.3,0,0,0-2.44,1.18c-2.12,1-4.27,1.9-6,2.55a13.67,13.67,0,0,0-3.16,1.08,14.51,14.51,0,0,0-8.33,13.1v3.2a3.48,3.48,0,0,1-3.09,3.41,2.77,2.77,0,0,0-.54.07,82.46,82.46,0,0,1-14,0,2.77,2.77,0,0,0-.54-.07,3.43,3.43,0,0,1-3.09-3.41v-3.12a2.72,2.72,0,0,0,0-.54,14.39,14.39,0,0,0-4.24-9.69,14.09,14.09,0,0,0-5.24-3.34l-.83-.29A60,60,0,0,1,61,148h0l-.83-.39a14.64,14.64,0,0,0-15.55,2.3,5.25,5.25,0,0,0-.75.57l-2.62,2.66a4.31,4.31,0,0,1-3.63.32l-1.08-.93c-1.72-1.47-3.41-3-5-4.6s-3.12-3.27-4.63-5l-.68-.79a3.52,3.52,0,0,1,.5-4.42l2.19-2.19a2.32,2.32,0,0,0,.29-.32,14.26,14.26,0,0,0,3.91-9.91,14.78,14.78,0,0,0-1.33-6.07,6.4,6.4,0,0,0-.36-.72c0-.07,0-.11-.07-.18a66.66,66.66,0,0,1-3.16-7.58c-.11-.36-.22-.72-.36-1.15a14.55,14.55,0,0,0-13.5-9.26H11.06a3.4,3.4,0,0,1-3.34-2.55l-.11-1.18c-.18-2.23-.29-4.49-.29-6.86s.07-4.63.29-6.86L7.68,82a3.43,3.43,0,0,1,3.37-2.8h3.2a2.72,2.72,0,0,0,.54,0,14.53,14.53,0,0,0,13-9.23,7.48,7.48,0,0,0,.36-1.08,64,64,0,0,1,3.09-7.58c.22-.32.36-.68.57-1.08A14.51,14.51,0,0,0,28.83,44l-2.26-2.26a3.41,3.41,0,0,1-.54-4.2l.72-.86.14-.14c1.44-1.69,2.94-3.34,4.52-4.92s3.3-3.16,5.1-4.7l.65-.54a3.48,3.48,0,0,1,4.38.39L43.8,29c.11.11.25.22.36.32A14.6,14.6,0,0,0,60,31.94c.29-.14.54-.25.79-.39a.13.13,0,0,0,.07,0,67.82,67.82,0,0,1,7.58-3.16c.39-.11.83-.25,1.11-.36A14.5,14.5,0,0,0,79,14.42v-3.2a3.37,3.37,0,0,1,2.55-3.34l1.18-.11a84.23,84.23,0,0,1,14.11,0l.5,0a3.43,3.43,0,0,1,2.84,3.37l0,1.36a15.31,15.31,0,0,0,0,3.63,14.44,14.44,0,0,0,8.72,11.52.51.51,0,0,0,.22.07,11.64,11.64,0,0,0,1.54.54,65.5,65.5,0,0,1,6.89,2.8,14.08,14.08,0,0,0,2.08,1,14.61,14.61,0,0,0,14.94-2.55,5.25,5.25,0,0,0,.75-.57L138,26.41a3.5,3.5,0,0,1,4.16.11,3.11,3.11,0,0,0,.36.25c1.83,1.54,3.59,3.16,5.31,4.88s3.16,3.3,4.63,5a5.25,5.25,0,0,0,.32.47,3.49,3.49,0,0,1-.32,4.67L150.29,44A14.36,14.36,0,0,0,146,54.19a14.78,14.78,0,0,0,.83,4.85,13.26,13.26,0,0,0,1.33,2.69s0,.07,0,.11c1,2,1.8,4,2.37,5.49a13.93,13.93,0,0,0,1.26,3.81,14.42,14.42,0,0,0,12.31,8,4,4,0,0,0,.65.07l3.55,0a3.4,3.4,0,0,1,3.05,3.05,5.58,5.58,0,0,0,.14.75c.18,2.26.29,4.49.29,6.79A33,33,0,0,1,171.83,96.06Z"/><path class="cls-1" d="M132.62,68.7A48.86,48.86,0,0,0,123.54,56a47.11,47.11,0,0,0-12.78-9.16,56.43,56.43,0,0,0-5.46-2.3,47.43,47.43,0,0,0-15.55-2.62h-.14a48.2,48.2,0,0,0-15.37,2.51,44.24,44.24,0,0,0-5.56,2.3,48.05,48.05,0,0,0-22,21.9,55.58,55.58,0,0,0-2.33,5.6,49.12,49.12,0,0,0-2.58,15.62,46.71,46.71,0,0,0,2.58,15.4,42.78,42.78,0,0,0,2.33,5.6,48,48,0,0,0,21.9,21.9A45.43,45.43,0,0,0,74.21,135a47.69,47.69,0,0,0,15.55,2.55,46.17,46.17,0,0,0,15.51-2.66,47.71,47.71,0,0,0,27.36-24.23c.83-1.76,1.58-3.55,2.23-5.39a47.93,47.93,0,0,0,0-31.06A37.48,37.48,0,0,0,132.62,68.7Zm-4.77,34.18a39.14,39.14,0,0,1-1.87,4.56,40,40,0,0,1-7.72,10.81A40.53,40.53,0,0,1,107.46,126a47.64,47.64,0,0,1-4.6,1.94,41.47,41.47,0,0,1-13.21,2.23,39.8,39.8,0,0,1-13-2.15,45.24,45.24,0,0,1-4.74-1.94,39.16,39.16,0,0,1-10.73-7.68,40.53,40.53,0,0,1-7.75-10.81,41.89,41.89,0,0,1-2-4.7,40,40,0,0,1-2.15-13,40.69,40.69,0,0,1,2.19-13.25,41.71,41.71,0,0,1,1.94-4.7,39.79,39.79,0,0,1,7.75-10.77A40.75,40.75,0,0,1,72,53.44a35.78,35.78,0,0,1,4.7-1.9,40.52,40.52,0,0,1,13-2.12h.14a40.47,40.47,0,0,1,13.1,2.19,36.67,36.67,0,0,1,4.6,1.94A40.88,40.88,0,0,1,118.3,61.3,39.88,39.88,0,0,1,126,72.07a37.15,37.15,0,0,1,1.94,4.63,40.28,40.28,0,0,1,2.15,13.1A42.49,42.49,0,0,1,127.85,102.88Z"/></g></g></g></svg>